<svg xmlns="http://www.w3.org/2000/svg" xmlns:xlink="http://www.w3.org/1999/xlink" width="500" zoomAndPan="magnify" viewBox="0 0 375 374.999991" height="500" preserveAspectRatio="xMidYMid meet" version="1.0"><defs><g/></defs><g fill="#ffffff" fill-opacity="1"><g transform="translate(100.108283, 215.612611)"><g><path d="M 43.0625 -35 C 43.0625 -30.625 43.140625 -26.171875 43.234375 -21.796875 C 41.21875 -25.296875 39.125 -28.703125 36.9375 -32.203125 L 18.375 -62.3125 L 5.6875 -62.3125 L 5.6875 0 L 18.640625 0 L 18.640625 -27.3125 C 18.640625 -31.59375 18.640625 -36.0625 18.546875 -40.4375 C 20.734375 -36.75 22.921875 -33.078125 25.203125 -29.40625 L 43.3125 0 L 56.015625 0 L 56.015625 -62.3125 L 43.0625 -62.3125 Z M 43.0625 -35 "/></g></g></g><g fill="#ffffff" fill-opacity="1"><g transform="translate(161.800886, 215.612611)"><g><path d="M 43.140625 -33.875 C 49.890625 -35.796875 53.296875 -40.609375 53.296875 -47.078125 C 53.296875 -56.625 45.953125 -62.3125 34.65625 -62.3125 L 5.6875 -62.3125 L 5.6875 0 L 34.828125 0 C 48.390625 0 55.21875 -8.40625 55.21875 -18.296875 C 55.21875 -25.296875 51.890625 -31.59375 43.140625 -33.875 Z M 32.375 -51.8125 C 38.15625 -51.8125 40.609375 -49.09375 40.609375 -45.15625 C 40.609375 -41.3125 38.15625 -38.25 31.859375 -38.25 L 18.640625 -38.25 L 18.640625 -51.8125 Z M 18.640625 -10.9375 L 18.640625 -27.75 L 33.171875 -27.75 C 39.125 -27.75 42.53125 -24.765625 42.53125 -19.515625 C 42.53125 -14.53125 39.46875 -10.9375 32.5625 -10.9375 Z M 18.640625 -10.9375 "/></g></g></g><g fill="#ffffff" fill-opacity="1"><g transform="translate(221.043286, 215.612611)"><g><path d="M 1.75 -62.3125 L 1.75 -50.765625 L 20.484375 -50.765625 L 20.484375 0 L 33.4375 0 L 33.4375 -50.765625 L 52.078125 -50.765625 L 52.078125 -62.3125 Z M 1.75 -62.3125 "/></g></g></g><g fill="#ffffff" fill-opacity="1"><g transform="translate(152.640815, 238.634234)"><g><path d="M 4.625 0 L 4.625 -10.125 L 0.546875 -10.125 L 0.546875 -12.859375 L 11.625 -12.859375 L 11.625 -10.125 L 7.546875 -10.125 L 7.546875 0 Z M 4.625 0 "/></g></g></g><g fill="#ffffff" fill-opacity="1"><g transform="translate(164.826741, 238.634234)"><g><path d="M 1.390625 0 L 1.390625 -13.59375 L 4.1875 -13.59375 L 4.1875 -8.90625 C 4.550781 -9.238281 4.976562 -9.488281 5.46875 -9.65625 C 5.957031 -9.820312 6.472656 -9.90625 7.015625 -9.90625 C 8.265625 -9.90625 9.242188 -9.519531 9.953125 -8.75 C 10.671875 -7.976562 11.03125 -6.914062 11.03125 -5.5625 L 11.03125 0 L 8.234375 0 L 8.234375 -5.296875 C 8.234375 -6.003906 8.0625 -6.550781 7.71875 -6.9375 C 7.382812 -7.320312 6.921875 -7.515625 6.328125 -7.515625 C 5.679688 -7.515625 5.160156 -7.296875 4.765625 -6.859375 C 4.378906 -6.421875 4.1875 -5.828125 4.1875 -5.078125 L 4.1875 0 Z M 1.390625 0 "/></g></g></g><g fill="#ffffff" fill-opacity="1"><g transform="translate(177.067806, 238.634234)"><g><path d="M 5.953125 0.25 C 4.921875 0.25 4.007812 0.0351562 3.21875 -0.390625 C 2.4375 -0.816406 1.820312 -1.410156 1.375 -2.171875 C 0.9375 -2.941406 0.71875 -3.828125 0.71875 -4.828125 C 0.71875 -5.835938 0.941406 -6.722656 1.390625 -7.484375 C 1.835938 -8.242188 2.453125 -8.835938 3.234375 -9.265625 C 4.023438 -9.691406 4.941406 -9.90625 5.984375 -9.90625 C 7.085938 -9.90625 8.039062 -9.660156 8.84375 -9.171875 C 9.644531 -8.679688 10.253906 -7.992188 10.671875 -7.109375 C 11.097656 -6.222656 11.285156 -5.195312 11.234375 -4.03125 L 3.484375 -4.03125 C 3.617188 -3.363281 3.910156 -2.851562 4.359375 -2.5 C 4.816406 -2.15625 5.367188 -1.984375 6.015625 -1.984375 C 6.472656 -1.984375 6.894531 -2.070312 7.28125 -2.25 C 7.664062 -2.425781 7.976562 -2.675781 8.21875 -3 L 11.046875 -3 C 10.628906 -1.976562 9.972656 -1.179688 9.078125 -0.609375 C 8.179688 -0.0351562 7.140625 0.25 5.953125 0.25 Z M 3.515625 -5.78125 L 8.53125 -5.78125 C 8.363281 -6.375 8.0625 -6.835938 7.625 -7.171875 C 7.195312 -7.515625 6.660156 -7.6875 6.015625 -7.6875 C 5.398438 -7.6875 4.867188 -7.515625 4.421875 -7.171875 C 3.972656 -6.835938 3.671875 -6.375 3.515625 -5.78125 Z M 3.515625 -5.78125 "/></g></g></g><g fill="#ffffff" fill-opacity="1"><g transform="translate(188.996409, 238.634234)"><g/></g></g><g fill="#ffffff" fill-opacity="1"><g transform="translate(193.315704, 238.634234)"><g><path d="M 1.546875 0 L 1.546875 -12.859375 L 4.03125 -12.859375 L 9.703125 -5.03125 L 9.703125 -12.859375 L 12.609375 -12.859375 L 12.609375 0 L 10.125 0 L 4.453125 -7.890625 L 4.453125 0 Z M 1.546875 0 "/></g></g></g><g fill="#ffffff" fill-opacity="1"><g transform="translate(207.468289, 238.634234)"><g><path d="M 5.953125 0.25 C 4.921875 0.25 4.007812 0.0351562 3.21875 -0.390625 C 2.4375 -0.816406 1.820312 -1.410156 1.375 -2.171875 C 0.9375 -2.941406 0.71875 -3.828125 0.71875 -4.828125 C 0.71875 -5.835938 0.941406 -6.722656 1.390625 -7.484375 C 1.835938 -8.242188 2.453125 -8.835938 3.234375 -9.265625 C 4.023438 -9.691406 4.941406 -9.90625 5.984375 -9.90625 C 7.085938 -9.90625 8.039062 -9.660156 8.84375 -9.171875 C 9.644531 -8.679688 10.253906 -7.992188 10.671875 -7.109375 C 11.097656 -6.222656 11.285156 -5.195312 11.234375 -4.03125 L 3.484375 -4.03125 C 3.617188 -3.363281 3.910156 -2.851562 4.359375 -2.5 C 4.816406 -2.15625 5.367188 -1.984375 6.015625 -1.984375 C 6.472656 -1.984375 6.894531 -2.070312 7.28125 -2.25 C 7.664062 -2.425781 7.976562 -2.675781 8.21875 -3 L 11.046875 -3 C 10.628906 -1.976562 9.972656 -1.179688 9.078125 -0.609375 C 8.179688 -0.0351562 7.140625 0.25 5.953125 0.25 Z M 3.515625 -5.78125 L 8.53125 -5.78125 C 8.363281 -6.375 8.0625 -6.835938 7.625 -7.171875 C 7.195312 -7.515625 6.660156 -7.6875 6.015625 -7.6875 C 5.398438 -7.6875 4.867188 -7.515625 4.421875 -7.171875 C 3.972656 -6.835938 3.671875 -6.375 3.515625 -5.78125 Z M 3.515625 -5.78125 "/></g></g></g><g fill="#ffffff" fill-opacity="1"><g transform="translate(219.396892, 238.634234)"><g><path d="M 0.4375 0 L 3.875 -4.90625 L 0.59375 -9.640625 L 3.75 -9.640625 L 5.625 -6.796875 L 6.515625 -8.171875 L 7.515625 -9.640625 L 10.671875 -9.640625 L 7.40625 -4.90625 L 10.828125 0 L 7.609375 0 L 6.5625 -1.546875 L 5.640625 -2.921875 L 4.703125 -1.546875 L 3.65625 0 Z M 0.4375 0 "/></g></g></g><g fill="#ffffff" fill-opacity="1"><g transform="translate(230.663822, 238.634234)"><g><path d="M 6.046875 0 C 4.816406 0 3.875 -0.3125 3.21875 -0.9375 C 2.5625 -1.570312 2.234375 -2.476562 2.234375 -3.65625 L 2.234375 -7.375 L 0.375 -7.375 L 0.375 -9.640625 L 1.234375 -9.640625 C 1.753906 -9.640625 2.109375 -9.722656 2.296875 -9.890625 C 2.492188 -10.066406 2.628906 -10.398438 2.703125 -10.890625 L 2.859375 -12.140625 L 5.03125 -12.140625 L 5.03125 -9.640625 L 7.6875 -9.640625 L 7.6875 -7.375 L 5.03125 -7.375 L 5.03125 -4.078125 C 5.03125 -2.972656 5.570312 -2.421875 6.65625 -2.421875 L 7.8125 -2.421875 L 7.8125 0 Z M 6.046875 0 "/></g></g></g><g fill="#ffffff" fill-opacity="1"><g transform="translate(239.247274, 238.634234)"><g/></g></g><g fill="#ffffff" fill-opacity="1"><g transform="translate(243.566569, 238.634234)"><g><path d="M 1.546875 0 L 1.546875 -12.859375 L 7.296875 -12.859375 C 8.609375 -12.859375 9.648438 -12.546875 10.421875 -11.921875 C 11.191406 -11.296875 11.578125 -10.457031 11.578125 -9.40625 C 11.578125 -8.800781 11.441406 -8.253906 11.171875 -7.765625 C 10.898438 -7.273438 10.519531 -6.890625 10.03125 -6.609375 C 10.644531 -6.335938 11.117188 -5.9375 11.453125 -5.40625 C 11.796875 -4.882812 11.96875 -4.28125 11.96875 -3.59375 C 11.96875 -2.875 11.78125 -2.242188 11.40625 -1.703125 C 11.039062 -1.171875 10.53125 -0.753906 9.875 -0.453125 C 9.21875 -0.148438 8.457031 0 7.59375 0 Z M 4.421875 -2.3125 L 7.140625 -2.3125 C 7.722656 -2.3125 8.171875 -2.445312 8.484375 -2.71875 C 8.804688 -2.988281 8.96875 -3.367188 8.96875 -3.859375 C 8.96875 -4.347656 8.804688 -4.726562 8.484375 -5 C 8.171875 -5.269531 7.722656 -5.40625 7.140625 -5.40625 L 4.421875 -5.40625 Z M 4.421875 -7.625 L 6.859375 -7.625 C 7.421875 -7.625 7.847656 -7.75 8.140625 -8 C 8.441406 -8.257812 8.59375 -8.625 8.59375 -9.09375 C 8.59375 -9.5625 8.441406 -9.921875 8.140625 -10.171875 C 7.847656 -10.421875 7.421875 -10.546875 6.859375 -10.546875 L 4.421875 -10.546875 Z M 4.421875 -7.625 "/></g></g></g><g fill="#ffffff" fill-opacity="1"><g transform="translate(256.230373, 238.634234)"><g><path d="M 1.390625 0 L 1.390625 -9.640625 L 4.1875 -9.640625 L 4.1875 0 Z M 1 -12.765625 C 1 -13.285156 1.164062 -13.707031 1.5 -14.03125 C 1.832031 -14.351562 2.265625 -14.515625 2.796875 -14.515625 C 3.328125 -14.515625 3.757812 -14.351562 4.09375 -14.03125 C 4.425781 -13.707031 4.59375 -13.285156 4.59375 -12.765625 C 4.59375 -12.253906 4.425781 -11.835938 4.09375 -11.515625 C 3.757812 -11.191406 3.328125 -11.03125 2.796875 -11.03125 C 2.265625 -11.03125 1.832031 -11.191406 1.5 -11.515625 C 1.164062 -11.835938 1 -12.253906 1 -12.765625 Z M 1 -12.765625 "/></g></g></g><g fill="#ffffff" fill-opacity="1"><g transform="translate(261.817885, 238.634234)"><g><path d="M 6.09375 4.078125 C 4.695312 4.078125 3.5625 3.757812 2.6875 3.125 C 1.8125 2.488281 1.3125 1.613281 1.1875 0.5 L 3.90625 0.5 C 4.007812 0.914062 4.25 1.238281 4.625 1.46875 C 5 1.695312 5.472656 1.8125 6.046875 1.8125 C 7.585938 1.8125 8.359375 1.03125 8.359375 -0.53125 L 8.359375 -1.21875 C 7.960938 -0.90625 7.507812 -0.664062 7 -0.5 C 6.5 -0.332031 5.960938 -0.25 5.390625 -0.25 C 4.484375 -0.25 3.675781 -0.453125 2.96875 -0.859375 C 2.257812 -1.273438 1.707031 -1.847656 1.3125 -2.578125 C 0.914062 -3.304688 0.71875 -4.144531 0.71875 -5.09375 C 0.71875 -6.03125 0.914062 -6.859375 1.3125 -7.578125 C 1.707031 -8.304688 2.257812 -8.875 2.96875 -9.28125 C 3.675781 -9.695312 4.484375 -9.90625 5.390625 -9.90625 C 6.066406 -9.90625 6.695312 -9.789062 7.28125 -9.5625 C 7.863281 -9.332031 8.363281 -9.003906 8.78125 -8.578125 L 9.078125 -9.640625 L 11.15625 -9.640625 L 11.15625 -0.53125 C 11.15625 0.425781 10.945312 1.25 10.53125 1.9375 C 10.125 2.632812 9.539062 3.164062 8.78125 3.53125 C 8.019531 3.894531 7.125 4.078125 6.09375 4.078125 Z M 3.46875 -5.09375 C 3.46875 -4.34375 3.703125 -3.734375 4.171875 -3.265625 C 4.640625 -2.804688 5.238281 -2.578125 5.96875 -2.578125 C 6.707031 -2.578125 7.3125 -2.804688 7.78125 -3.265625 C 8.25 -3.734375 8.484375 -4.34375 8.484375 -5.09375 C 8.484375 -5.820312 8.25 -6.421875 7.78125 -6.890625 C 7.3125 -7.359375 6.707031 -7.59375 5.96875 -7.59375 C 5.238281 -7.59375 4.640625 -7.359375 4.171875 -6.890625 C 3.703125 -6.421875 3.46875 -5.820312 3.46875 -5.09375 Z M 3.46875 -5.09375 "/></g></g></g><g fill="#ffffff" fill-opacity="1"><g transform="translate(274.389791, 238.634234)"><g/></g></g><g fill="#ffffff" fill-opacity="1"><g transform="translate(278.709086, 238.634234)"><g><path d="M 4.625 0 L 4.625 -10.125 L 0.546875 -10.125 L 0.546875 -12.859375 L 11.625 -12.859375 L 11.625 -10.125 L 7.546875 -10.125 L 7.546875 0 Z M 4.625 0 "/></g></g></g><g fill="#ffffff" fill-opacity="1"><g transform="translate(290.895012, 238.634234)"><g><path d="M 1.390625 0 L 1.390625 -13.59375 L 4.1875 -13.59375 L 4.1875 -8.90625 C 4.550781 -9.238281 4.976562 -9.488281 5.46875 -9.65625 C 5.957031 -9.820312 6.472656 -9.90625 7.015625 -9.90625 C 8.265625 -9.90625 9.242188 -9.519531 9.953125 -8.75 C 10.671875 -7.976562 11.03125 -6.914062 11.03125 -5.5625 L 11.03125 0 L 8.234375 0 L 8.234375 -5.296875 C 8.234375 -6.003906 8.0625 -6.550781 7.71875 -6.9375 C 7.382812 -7.320312 6.921875 -7.515625 6.328125 -7.515625 C 5.679688 -7.515625 5.160156 -7.296875 4.765625 -6.859375 C 4.378906 -6.421875 4.1875 -5.828125 4.1875 -5.078125 L 4.1875 0 Z M 1.390625 0 "/></g></g></g><g fill="#ffffff" fill-opacity="1"><g transform="translate(303.136077, 238.634234)"><g><path d="M 1.390625 0 L 1.390625 -9.640625 L 4.1875 -9.640625 L 4.1875 0 Z M 1 -12.765625 C 1 -13.285156 1.164062 -13.707031 1.5 -14.03125 C 1.832031 -14.351562 2.265625 -14.515625 2.796875 -14.515625 C 3.328125 -14.515625 3.757812 -14.351562 4.09375 -14.03125 C 4.425781 -13.707031 4.59375 -13.285156 4.59375 -12.765625 C 4.59375 -12.253906 4.425781 -11.835938 4.09375 -11.515625 C 3.757812 -11.191406 3.328125 -11.03125 2.796875 -11.03125 C 2.265625 -11.03125 1.832031 -11.191406 1.5 -11.515625 C 1.164062 -11.835938 1 -12.253906 1 -12.765625 Z M 1 -12.765625 "/></g></g></g><g fill="#ffffff" fill-opacity="1"><g transform="translate(308.723588, 238.634234)"><g><path d="M 1.390625 0 L 1.390625 -9.640625 L 3.46875 -9.640625 L 3.765625 -8.5625 C 4.160156 -9.019531 4.632812 -9.359375 5.1875 -9.578125 C 5.75 -9.796875 6.347656 -9.90625 6.984375 -9.90625 C 8.242188 -9.90625 9.234375 -9.507812 9.953125 -8.71875 C 10.671875 -7.9375 11.03125 -6.878906 11.03125 -5.546875 L 11.03125 0 L 8.234375 0 L 8.234375 -5.25 C 8.234375 -5.96875 8.0625 -6.523438 7.71875 -6.921875 C 7.382812 -7.316406 6.921875 -7.515625 6.328125 -7.515625 C 5.679688 -7.515625 5.160156 -7.289062 4.765625 -6.84375 C 4.378906 -6.40625 4.1875 -5.804688 4.1875 -5.046875 L 4.1875 0 Z M 1.390625 0 "/></g></g></g><g fill="#ffffff" fill-opacity="1"><g transform="translate(320.964663, 238.634234)"><g><path d="M 6.09375 4.078125 C 4.695312 4.078125 3.5625 3.757812 2.6875 3.125 C 1.8125 2.488281 1.3125 1.613281 1.1875 0.5 L 3.90625 0.5 C 4.007812 0.914062 4.25 1.238281 4.625 1.46875 C 5 1.695312 5.472656 1.8125 6.046875 1.8125 C 7.585938 1.8125 8.359375 1.03125 8.359375 -0.53125 L 8.359375 -1.21875 C 7.960938 -0.90625 7.507812 -0.664062 7 -0.5 C 6.5 -0.332031 5.960938 -0.25 5.390625 -0.25 C 4.484375 -0.25 3.675781 -0.453125 2.96875 -0.859375 C 2.257812 -1.273438 1.707031 -1.847656 1.3125 -2.578125 C 0.914062 -3.304688 0.71875 -4.144531 0.71875 -5.09375 C 0.71875 -6.03125 0.914062 -6.859375 1.3125 -7.578125 C 1.707031 -8.304688 2.257812 -8.875 2.96875 -9.28125 C 3.675781 -9.695312 4.484375 -9.90625 5.390625 -9.90625 C 6.066406 -9.90625 6.695312 -9.789062 7.28125 -9.5625 C 7.863281 -9.332031 8.363281 -9.003906 8.78125 -8.578125 L 9.078125 -9.640625 L 11.15625 -9.640625 L 11.15625 -0.53125 C 11.15625 0.425781 10.945312 1.25 10.53125 1.9375 C 10.125 2.632812 9.539062 3.164062 8.78125 3.53125 C 8.019531 3.894531 7.125 4.078125 6.09375 4.078125 Z M 3.46875 -5.09375 C 3.46875 -4.34375 3.703125 -3.734375 4.171875 -3.265625 C 4.640625 -2.804688 5.238281 -2.578125 5.96875 -2.578125 C 6.707031 -2.578125 7.3125 -2.804688 7.78125 -3.265625 C 8.25 -3.734375 8.484375 -4.34375 8.484375 -5.09375 C 8.484375 -5.820312 8.25 -6.421875 7.78125 -6.890625 C 7.3125 -7.359375 6.707031 -7.59375 5.96875 -7.59375 C 5.238281 -7.59375 4.640625 -7.359375 4.171875 -6.890625 C 3.703125 -6.421875 3.46875 -5.820312 3.46875 -5.09375 Z M 3.46875 -5.09375 "/></g></g></g><g fill="#ffffff" fill-opacity="1"><g transform="translate(333.536569, 238.634234)"><g><path d="M 2.46875 0.203125 C 1.957031 0.203125 1.539062 0.046875 1.21875 -0.265625 C 0.90625 -0.578125 0.75 -0.972656 0.75 -1.453125 C 0.75 -1.929688 0.90625 -2.328125 1.21875 -2.640625 C 1.539062 -2.960938 1.957031 -3.125 2.46875 -3.125 C 2.96875 -3.125 3.375 -2.960938 3.6875 -2.640625 C 4.007812 -2.328125 4.171875 -1.929688 4.171875 -1.453125 C 4.171875 -0.972656 4.007812 -0.578125 3.6875 -0.265625 C 3.375 0.046875 2.96875 0.203125 2.46875 0.203125 Z M 2.46875 0.203125 "/></g></g></g></svg>